<svg xmlns="http://www.w3.org/2000/svg" viewBox="0 0 1920.54 394.66" width="130">
<defs>
<style>.cls-1{fill:#00aeff;}</style>
</defs>
<title>ShoutOUT Logo</title>
<g id="Layer_2" data-name="Layer 2">
<g id="Layer_1-2" data-name="Layer 1">
<path class="cls-1" d="M0,44.87C1.85,38.81,3.22,32.59,6.54,27,17.91,8,34.92-.08,56.7,0,112.46.2,168.21.16,224,.18q85.26,0,170.52,0C421.92.2,445.89,23,446.05,50.47q.54,94.13,0,188.26c-.11,24-17.93,44.47-41.67,49.42a65.17,65.17,0,0,1-13.28,1.26q-87.61,0-175.23,0a13.55,13.55,0,0,0-10.1,3.74c-13,12.27-26.09,24.37-39.15,36.53q-32.29,30.08-64.56,60.17a25.07,25.07,0,0,1-8.67,4.84H91.25c-11-4-13-6.82-13-18.9,0-27.4,0-54.79.06-82.18,0-3.16-1-4.2-4.17-4.21-8.31,0-16.62.26-24.95-.31A52.58,52.58,0,0,1,1.79,251.25c-.63-2.16-.56-4.51-1.79-6.5Zm382.32,36-.32-.93L70.56,119.63c.54,1.58,1.7,2.08,2.61,2.79q15.94,12.51,31.9,25c2.43,1.89,3.79,4,3.54,7.34-1.53,19.93-3,39.86-3.63,59.84,0,1.27-.72,3,.4,3.71s2.4-.71,3.49-1.33c15.37-8.81,30.74-17.62,46-26.56,2.4-1.41,4-1.13,6.08.6,5.77,4.93,11.72,9.65,17.53,14.55,1.93,1.63,3.6,1.92,5.8.4,3.66-2.54,7.52-4.79,11.29-7.17L357.08,96.91C365.52,91.59,373.91,86.2,382.32,80.84Z"/>
<path class="cls-1" d="M1522.73,153.41c-.24,18.9-2.76,38.15-10.57,56.39-11.73,27.36-32.3,44.27-61.1,51.44a124.1,124.1,0,0,1-65.85-1.21c-29.62-8.68-49.28-28.2-59.2-57.31-7-20.65-8.8-42-7.39-63.7,1.1-16.93,4.54-33.28,11.72-48.67,11.7-25.1,31.4-40.69,58.07-47.54,23-5.91,46-5.71,68.63,1.23,30.88,9.48,49.93,30.85,59.28,61.33C1521,120.76,1522.5,136.62,1522.73,153.41Zm-103,69.38c2,0,4,.07,6,0,24.38-.86,40.81-13.22,48-36.44,4.19-13.45,5.12-27.27,4.4-41.34-.56-11-2-21.62-5.92-31.91-5.78-15.32-16.28-25.59-32.17-30-9.21-2.53-18.61-2.54-28.13-2-20.17,1.15-36.75,12.64-43.4,31.72-8.86,25.38-8.39,51.11-.51,76.62,3.73,12.06,11.25,21.57,22.78,27.36C1400,221.4,1409.69,223.06,1419.77,222.79Z"/>
<path class="cls-1" d="M1560.57,128c0-22.94,0-45.89,0-68.83,0-8.48,3.47-15.27,11.08-19.13,7.77-3.93,15.73-3.63,23.08,1.2,6,3.93,8.85,9.8,8.85,17.08q0,63.08,0,126.14a84.59,84.59,0,0,0,1.43,15.39c2.12,11.25,8.83,17.85,19.94,20.29a68.48,68.48,0,0,0,30.71.15c14.07-3.31,21-12.41,21.4-26.93,1.2-44.55.39-89.11.56-133.66,0-8.82,3.49-15.8,11.3-19.76,8-4.09,16.21-3.36,23.6,2a19.26,19.26,0,0,1,8.09,15.34c.1,1.92,0,3.84,0,5.77.14,29.3.55,58.6.29,87.9-.14,15.61,0,31.22-.45,46.82-.87,32.05-19.36,55.59-50.2,63.51a117.31,117.31,0,0,1-61.34-.54c-26.06-7.25-41.31-25.22-46.87-51.76a92.75,92.75,0,0,1-1.56-19.33Q1560.62,158.85,1560.57,128Z"/>
<path class="cls-1" d="M614.15,264.66c-24.64-.1-44.93-5-62.42-18.65-8.34-6.53-15.57-14.08-20.05-23.87-3.93-8.61-1.13-18.51,6.3-22.82,8.48-4.92,18.61-3.14,23.83,5.22,12.51,20,31.09,26.57,53.49,25.38,8.94-.47,17.51-2.14,25.46-6.72,15.15-8.72,16.91-35.67,1.9-45.25a109.19,109.19,0,0,0-23.24-11.22c-14.55-5-29.54-8.88-43.46-15.65-12.64-6.15-24.1-13.82-30.38-27-13.69-28.75-5.39-66.32,30.09-79.7,31.17-11.76,61.54-9,89.56,10.22,6.79,4.65,11.87,11,16.86,17.5,6.58,8.62.7,24.22-10.09,26.27-8.39,1.59-14.3-1-19.46-6.71-8.08-8.93-17.35-15.76-29.48-17.85C612,71.87,601,71.9,590.3,76.19,581.76,79.63,576.67,86,575.62,95c-1,8.59,3.2,15.06,10.06,19.73,9.27,6.31,19.83,9.85,30.35,13.43,14.58,5,29.31,9.62,42.6,17.7,12,7.28,22.56,16.23,26.71,30,7.67,25.5,5.28,49.34-14.69,69.14-9.93,9.84-22.57,14.29-35.86,17.23C627.06,264,619.23,264.89,614.15,264.66Z"/>
<path class="cls-1" d="M1857.24,165.78q0,39,0,78c0,11.35-6.31,18.8-17.87,21.38-9.58,2.14-20.28-3.1-24.54-12a21.05,21.05,0,0,1-1.86-9.27q0-78.36,0-156.7c0-6.39-.21-6.61-6.64-6.61-11.89,0-23.78.08-35.67,0-10.78-.09-18.94-7.09-20.82-17.66a21.58,21.58,0,0,1,13.53-24.21,19.78,19.78,0,0,1,6.82-1.23q64.56,0,129.12-.07c10.84,0,20.43,8.76,21.15,19.14.84,11.94-6.49,22.43-17.13,23.79-5.07.65-10.28.37-15.42.38-8.46,0-16.92-.1-25.38-.11-4.55,0-5.29.76-5.29,5.41Q1857.22,125.88,1857.24,165.78Z"/>
<path class="cls-1" d="M725.65,151.75q0-48.51,0-97A16.57,16.57,0,0,1,740.1,38c7.69-1.18,15.86,4,18.37,11.58a17.7,17.7,0,0,1,.58,5.73q0,29.13,0,58.27c0,4.53.34,4.8,4.4,3,10.82-4.89,22.11-7.72,34-6.89,14.91,1,28.66,5.66,39.94,15.73,10.12,9,14.46,21.36,14.76,34.33.69,29.91.34,59.84.25,89.77,0,9-7.7,15.82-16.94,15.64s-16.4-7.13-16.41-16.16c0-24.86,0-49.71-.13-74.57a66.76,66.76,0,0,0-2.07-17.17c-2-7.25-6.66-11.82-13.94-13.74a46.7,46.7,0,0,0-22.2-.36c-12.79,2.83-20.39,12.19-21,25.46-1.1,22.66-.72,45.34-.56,68,0,4.81.54,9.6-.16,14.41-1.24,8.61-9,14.7-18.13,14.12a16.45,16.45,0,0,1-15.19-16.31Q725.65,200.25,725.65,151.75Z"/>
<path class="cls-1" d="M1025.52,185c0,15.93-2.53,29.84-8.21,43.08-7.24,16.86-19.69,28.12-37.43,33-15.34,4.25-30.89,5-46.39.65-19.53-5.44-33.65-17.34-40.56-36.48-9.81-27.19-10-54.65,1.22-81.48,9.29-22.18,27.53-32.61,50.65-35.61a83.75,83.75,0,0,1,34.35,2.53c22.25,6.43,35.79,21.31,41.89,43.35a114.77,114.77,0,0,1,3.54,17.31C1025.16,176.43,1025.85,181.47,1025.52,185Zm-34.64,1.82a76.9,76.9,0,0,0-1.8-18.56c-1.5-7-3.47-13.82-8.59-19.21-7.58-8-17.34-9.34-27.6-8.92-15,.63-24.18,6.85-28.7,21a80.27,80.27,0,0,0,.58,51.82c3.47,10,10.63,16.18,21.06,18.33a52.49,52.49,0,0,0,18.33.17c12-1.77,19.14-8.94,22.81-20A71.61,71.61,0,0,0,990.88,186.85Z"/>
<path class="cls-1" d="M1182.63,169.07c0,14,.07,28,0,42-.14,21.78-11.83,40.63-30.8,47.16-20.66,7.1-41.75,8-62.64,0-17-6.54-26.3-19.16-29.65-36.71-2.17-11.36-1.45-22.82-1.46-34.27q0-30.94-.08-61.9a16.13,16.13,0,0,1,12.76-16.25,16.59,16.59,0,0,1,20.71,16.22c.06,25,0,50,.06,74.94a59.16,59.16,0,0,0,1.76,14.66c1.86,7.26,6.5,11.76,13.49,13.76a50.2,50.2,0,0,0,27.5,0c8.65-2.39,13.88-10.27,14.35-20.4,1.28-27.5.43-55,.62-82.5a17.1,17.1,0,0,1,22.26-16.4,15.88,15.88,0,0,1,11.21,15.21c.06,14.85,0,29.69,0,44.53Z"/>
<path class="cls-1" d="M1232.72,187.24q0-18.83,0-37.64c0-4.6-.54-5.14-5.23-5.41-9.11-.53-15.87-7.56-15.75-16.38a16.27,16.27,0,0,1,16.8-16.46c3.15,0,4.34-.88,4.24-4.13-.2-6.7-.09-13.4,0-20.1.06-9,7.52-16,16.91-16.06s16.63,6.75,16.78,15.68c.12,6.7.14,13.4,0,20.1-.07,3.23.87,4.79,4.37,4.49a81.13,81.13,0,0,1,8.4,0c8.2.13,15,6.2,15.75,13.92.85,9.33-4.56,17.19-13,18.81a37.15,37.15,0,0,1-10.53.41c-3.85-.37-4.91.62-4.91,4.39q0,33.63,0,67.26a40.22,40.22,0,0,0,.79,7.25c.89,4.67,3.6,6.79,8.75,7.15,14.08,1,21.65,14.23,14.65,25.72a15.27,15.27,0,0,1-12.61,7.6c-26.75,1.86-45.12-17.73-45.33-40.74C1232.64,211.12,1232.72,199.18,1232.72,187.24Z"/>
<path class="cls-1" d="M115.75,197.31c.33-13,1.18-25.81,2.24-38.64.2-2.37,2-2.67,3.82-3.11q23.69-5.7,47.37-11.47l141.76-34.33q14.91-3.62,29.84-7.15c.67-.16,1.37-.23,2.39-.4-.56,1.85-2,2-3.06,2.39L208,151.4q-34.89,12.36-69.81,24.69a18.59,18.59,0,0,0-8.39,6c-3.87,4.78-7.87,9.46-11.82,14.17A1.92,1.92,0,0,1,115.75,197.31Z"/>
</g>
</g>
</svg>